<svg xmlns="http://www.w3.org/2000/svg" width="19.418" height="19.418" viewBox="0 0 19.418 19.418">
    <defs>
        <style>
            .cls-1{fill:#ebebeb}
        </style>
    </defs>
    <g id="News_icon" data-name="News icon" transform="translate(.001)">
        <path id="Tracé_2593" data-name="Tracé 2593" class="cls-1" d="M337.4 211.264v2.436a2.4 2.4 0 0 0 4.794 0v-2.437a2.4 2.4 0 0 0-4.794 0zm0 0" transform="translate(-324.602 -200.945)"/>
        <path id="Tracé_2594" data-name="Tracé 2594" class="cls-1" d="M297.08 305.266a.569.569 0 0 0-.569.569v.609a3.087 3.087 0 1 1-6.174 0v-.609a.569.569 0 1 0-1.138 0v.609a4.223 4.223 0 0 0 3.656 4.187v1.338H291.6a.569.569 0 1 0 0 1.138h3.656a.569.569 0 1 0 0-1.138h-1.259v-1.338a4.223 4.223 0 0 0 3.656-4.187v-.609a.569.569 0 0 0-.573-.569zm0 0" transform="translate(-278.232 -293.688)"/>
        <path id="Tracé_2595" data-name="Tracé 2595" class="cls-1" d="M11.537 10.44h.121v-.126A3.534 3.534 0 0 1 18.2 8.462V3.311A3.313 3.313 0 0 0 14.888 0H3.31A3.313 3.313 0 0 0 0 3.311v13.1a.569.569 0 0 0 .933.437l3.5-2.915h5.53a5.373 5.373 0 0 1-.131-1.178v-.609a1.709 1.709 0 0 1 1.707-1.707zM3.615 3.656h10.968a.569.569 0 1 1 0 1.138H3.615a.569.569 0 0 1 0-1.138zm4.915 7.232H3.615a.569.569 0 0 1 0-1.138H8.53a.569.569 0 1 1 0 1.138zM3.615 7.841a.569.569 0 0 1 0-1.138h7.312a.569.569 0 0 1 0 1.138zm0 0"/>
    </g>
</svg>
