<svg data-name="Shop icon" xmlns="http://www.w3.org/2000/svg" width="21.419" height="21.419" viewBox="0 0 21.419 21.419">
    <path data-name="Tracé 22" d="M0 0h21.419v21.419H0z" style="fill:none"/>
    <path data-name="Tracé 23" d="M19.741 18.064v1.785H1.892v-1.785h.892v-6.031a4.018 4.018 0 0 1-1.22-5.395l2.42-4.192A.892.892 0 0 1 4.758 2h12.119a.892.892 0 0 1 .773.446l2.411 4.178a4.012 4.012 0 0 1-1.212 5.408v6.031zM5.274 3.785 3.1 7.545a2.231 2.231 0 0 0 3.988 1.977.892.892 0 0 1 1.656 0 2.231 2.231 0 0 0 4.144 0 .892.892 0 0 1 1.656 0 2.231 2.231 0 1 0 3.979-1.992l-2.164-3.745H5.275z" transform="translate(-.108 -.215)" style="fill:#ebebeb"/>
</svg>
